PathFileType	4	(X/Y/Z)	C:\Users\Basilio\Documents\Thesis Gigler\squatting_fais\c3dfiles\076\SLS_front_pre3\markers_experimental.trc
DataRate	CameraRate	NumFrames	NumMarkers	Units	OrigDataRate	OrigDataStartFrame	OrigNumFrames
200.000000	200.000000	4	61	mm	200.000000	908	1453
Frame#	Time	FHD			LBHD			RBHD			C7			T10			CLAV			LSHO			LUUPA			LMUPA			LDUPA			LLEP			LMEP			LRAD			LUL			LRFIN			RSHO			RUPA1			RMUPA			RDUPA			RLEP			RMEP			RRAD			RUL			RUFIN			LASI			RASI			USACR			LSACR			RSACR			LTHI1			LTHI2			LTHI4			LLFC			LMFC			LTIB1			LTIB2			LTIB3			LTIB4			LLMAL			LMMAL			LHEE			LMT1			LMT2			LMT5			RTHI			RTHI2			RTHI3			RTHI4			RLFC			RMFC			RTIB1			RTIB2			RTIB3			RTIB4			RLMAL			RMMAL			RHEE			RMT1			RMT2			RMT5			LTHI3			
		X1	Y1	Z1	X2	Y2	Z2	X3	Y3	Z3	X4	Y4	Z4	X5	Y5	Z5	X6	Y6	Z6	X7	Y7	Z7	X8	Y8	Z8	X9	Y9	Z9	X10	Y10	Z10	X11	Y11	Z11	X12	Y12	Z12	X13	Y13	Z13	X14	Y14	Z14	X15	Y15	Z15	X16	Y16	Z16	X17	Y17	Z17	X18	Y18	Z18	X19	Y19	Z19	X20	Y20	Z20	X21	Y21	Z21	X22	Y22	Z22	X23	Y23	Z23	X24	Y24	Z24	X25	Y25	Z25	X26	Y26	Z26	X27	Y27	Z27	X28	Y28	Z28	X29	Y29	Z29	X30	Y30	Z30	X31	Y31	Z31	X32	Y32	Z32	X33	Y33	Z33	X34	Y34	Z34	X35	Y35	Z35	X36	Y36	Z36	X37	Y37	Z37	X38	Y38	Z38	X39	Y39	Z39	X40	Y40	Z40	X41	Y41	Z41	X42	Y42	Z42	X43	Y43	Z43	X44	Y44	Z44	X45	Y45	Z45	X46	Y46	Z46	X47	Y47	Z47	X48	Y48	Z48	X49	Y49	Z49	X50	Y50	Z50	X51	Y51	Z51	X52	Y52	Z52	X53	Y53	Z53	X54	Y54	Z54	X55	Y55	Z55	X56	Y56	Z56	X57	Y57	Z57	X58	Y58	Z58	X59	Y59	Z59	X60	Y60	Z60	X61	Y61	Z61	

909	4.54	-215.7187957763672	1348.43212890625	-1022.301208496094	-353.7760925292969	1276.460815429688	-1120.378295898438	-341.0861816406251	1280.7744140625	-969.187927246094	-398.0681152343751	1170.566040039063	-1036.548217773438	-514.6465454101564	883.3474731445315	-1029.751220703125	-281.4847717285157	1078.181640625	-1045.859497070313	-331.9723510742188	1121.3369140625	-1200.664306640625	-192.4237518310547	1085.690673828125	-1283.437133789063	-159.1439056396485	1101.2158203125	-1250.812133789063	-126.8474044799805	1083.67041015625	-1299.727416992188	-76.22910308837892	1068.006469726563	-1314.468017578125	-64.1979446411133	1004.322265625	-1268.135131835938	171.34423828125	1105.43310546875	-1271.210693359375	166.2837524414063	1108.6123046875	-1335.657592773438	252.3168945312501	1129.567626953125	-1273.618041992188	-314.8578491210938	1119.440551757813	-892.5411376953127	-181.3659210205078	1068.544067382813	-804.2908935546877	-152.0139465332032	1100.19775390625	-827.2197875976565	-111.3681335449219	1063.196044921875	-800.1087036132815	-44.38211822509766	1068.408447265625	-805.6214599609377	-39.76940536499024	1018.851196289063	-863.7545166015627	199.0983428955079	1093.045166015625	-858.2510375976565	189.7357330322266	1089.320678710938	-792.3903808593752	272.9307556152344	1113.450073242188	-845.4053955078127	-398.0496826171876	700.6052246093751	-1138.649780273438	-394.0518188476564	695.6794433593751	-923.7793579101565	-553.5784301757814	770.1431274414065	-1025.2001953125	-565.0227050781251	743.1599731445314	-1055.90185546875	-565.5868530273439	737.9919433593751	-998.9645996093752	-394.1921386718751	582.8755493164064	-1213.620971679688	-311.6452941894532	561.6751098632814	-1209.209838867188	-287.5771789550782	506.0240478515626	-1201.439453125	-171.0600891113282	405.7730102539064	-1164.982421875	-156.7826232910157	426.7653808593751	-1050.784790039063	-192.7984313964844	287.9241333007813	-1059.252197265625	-233.7425231933594	231.7733917236329	-1115.327026367188	-209.3139038085938	233.3308258056641	-1073.883178710938	-267.3428344726563	189.7206268310547	-1032.85595703125	-375.0549011230469	104.9917526245117	-1074.09033203125	-348.7269287109376	121.2739562988282	-992.2658691406252	-440.8865661621095	96.21237945556643	-1024.495971679688	-238.8380584716797	51.41051101684572	-1003.515197753906	-233.221176147461	48.86277389526369	-1042.39453125	-257.8177795410157	43.66413879394532	-1092.35888671875	-319.0530700683594	508.0941772460939	-864.8773193359377	-252.7380065917969	509.8712463378907	-872.9074707031252	-237.8240356445313	539.5004882812501	-884.5566406250002	-203.1681823730469	445.1566162109376	-893.2615966796877	-156.239730834961	412.5489807128907	-900.6993408203127	-143.3175964355469	427.7742919921876	-1017.256469726563	-23.51498603820801	365.5906066894532	-925.865661621094	0.1422892212867737	262.4515686035157	-898.1590576171877	28.78268241882325	297.2488098144532	-911.8132934570315	71.40868377685548	279.9047241210938	-946.910095214844	153.2748107910157	145.8326568603516	-915.2127075195315	145.4330749511719	170.6678314208985	-996.2116699218752	141.5723114013672	82.83071899414064	-954.1828613281252	271.2447509765626	238.495101928711	-996.5184326171877	270.1521606445313	252.4606628417969	-950.3723754882815	273.3747558593751	222.3676757812501	-896.018493652344	-285.1581115722657	597.4246215820314	-1187.052124023438	
910	4.545	-215.8762359619141	1349.086547851563	-1022.349853515625	-353.9008178710938	1277.180297851563	-1120.50439453125	-341.3657836914063	1281.489868164063	-969.270690917969	-398.2439880371095	1171.168212890625	-1036.62109375	-514.6475219726564	883.8759765625002	-1029.772827148438	-281.5864562988282	1078.771606445313	-1045.865234375	-331.9254455566407	1121.945922851563	-1200.677856445313	-192.5515899658204	1086.366333007813	-1283.506958007813	-159.2617492675782	1101.790893554688	-1250.877807617188	-127.0817184448242	1084.202392578125	-1299.690185546875	-76.33522033691408	1068.475952148438	-1314.55029296875	-64.41510009765626	1004.875610351563	-1267.998291015625	171.207504272461	1106.238037109375	-1271.137329101563	166.5591735839844	1109.315307617188	-1335.860107421875	251.5382080078126	1130.595336914063	-1273.249877929688	-315.0158386230469	1120.073364257813	-892.5424804687502	-181.6037750244141	1069.003784179688	-804.3758544921877	-152.1404418945313	1100.814086914063	-827.2495117187502	-111.5323257446289	1063.734008789063	-800.123718261719	-44.52186584472657	1068.952026367188	-805.6928710937502	-39.89904022216798	1019.294860839844	-863.882995605469	199.1130065917969	1093.366333007813	-858.2683715820315	189.644287109375	1089.937377929688	-792.5329589843752	272.6808471679688	1114.265991210938	-845.5454101562502	-397.7442626953126	701.2387084960939	-1138.71533203125	-393.7321777343751	696.8037109375001	-923.7629394531252	-553.4609985351564	770.7298583984377	-1025.244262695313	-564.8916015625001	743.5336914062501	-1055.835815429688	-565.5295410156251	738.5497436523439	-998.9561157226565	-394.0522766113282	583.2263793945314	-1213.604125976563	-312.2238159179688	562.0236816406251	-1209.497192382813	-287.5830993652344	506.139862060547	-1201.385986328125	-171.1883239746094	405.8815917968751	-1165.196044921875	-156.9763946533203	426.6978454589845	-1050.878784179688	-192.7973175048829	288.0162048339844	-1059.467041015625	-234.1880340576172	231.5465240478516	-1114.214965820313	-209.3733673095704	233.3887481689454	-1074.111083984375	-267.2925415039063	189.7643432617188	-1032.979614257813	-375.0674743652344	104.9729766845703	-1074.181030273438	-348.6612548828126	121.2745361328125	-992.3677978515627	-440.8961181640626	96.22314453125003	-1024.50048828125	-238.8374481201172	51.45668411254884	-1003.530090332031	-233.2694396972657	48.8507766723633	-1042.40869140625	-257.8345642089844	43.62498474121094	-1092.361694335938	-318.9689025878907	508.6182556152345	-864.8299560546877	-252.4993591308594	510.7447204589845	-872.8707275390627	-237.6924133300782	540.1533203125001	-884.460388183594	-203.0263977050782	445.9445800781251	-893.2295532226565	-156.0126495361328	413.2475891113282	-900.6644287109377	-142.9856414794922	428.5738220214845	-1017.179443359375	-23.21024322509766	366.3507385253907	-925.7980957031252	0.4987719953060151	263.3743896484376	-898.2211914062502	29.14702033996583	298.0209350585938	-911.756530761719	71.74390411376955	280.8238525390626	-946.9143066406252	153.73193359375	146.811767578125	-915.3889770507815	146.3635559082032	171.6865692138672	-996.5224609375002	142.0395965576172	83.73301696777345	-954.4117431640627	271.6969909667969	239.8016662597657	-996.8508911132815	270.8144226074219	253.6929321289063	-950.5186157226565	273.8899536132813	223.3076324462891	-896.1530761718752	-285.0554504394532	597.7262573242189	-1187.296752929688	
911	4.55	-216.0434265136719	1349.786743164063	-1022.406555175781	-354.0030517578126	1277.785766601563	-1120.710815429688	-341.4773864746094	1282.24853515625	-969.3291015625002	-398.438690185547	1171.696044921875	-1036.706298828125	-514.5864257812501	884.4721679687502	-1029.776123046875	-281.9135131835938	1079.4296875	-1045.929565429688	-332.0366210937501	1122.561645507813	-1200.794067382813	-192.5960540771485	1086.993530273438	-1283.543212890625	-159.3272552490235	1102.388793945313	-1250.940551757813	-127.3229751586914	1084.907470703125	-1299.884033203125	-76.39183044433595	1069.045532226563	-1314.274536132813	-64.48735809326173	1005.477966308594	-1267.914794921875	171.006088256836	1107.463256835938	-1270.78271484375	166.290512084961	1110.004028320313	-1335.725341796875	251.1448364257813	1130.808959960938	-1272.999389648438	-315.2009582519532	1120.690795898438	-892.5903320312502	-181.8207702636719	1069.653564453125	-804.445739746094	-152.3258666992188	1101.375366210938	-827.2756958007815	-111.6623916625977	1064.421020507813	-800.201354980469	-44.66839981079102	1069.482421875	-805.610778808594	-40.06721878051759	1019.808166503906	-863.7651367187502	199.0859832763672	1094.067993164063	-858.3607177734377	189.4506530761719	1090.458251953125	-792.5713500976565	272.6386413574219	1114.810913085938	-845.7456665039065	-397.670379638672	701.7310791015626	-1138.700073242188	-393.675018310547	696.9984130859376	-923.803161621094	-553.3217163085939	771.2543945312502	-1025.21240234375	-564.6693725585939	744.2255859375001	-1055.902587890625	-565.3129272460939	739.1614379882814	-999.0068359375002	-393.7535705566407	583.6613159179689	-1213.509643554688	-312.0569763183594	562.3078002929689	-1209.600463867188	-287.6048583984376	506.2806091308595	-1201.372680664063	-171.31591796875	405.9326171875001	-1165.344604492188	-157.0521697998047	426.7003784179689	-1051.055053710938	-192.8861999511719	288.0762023925782	-1059.655639648438	-234.2754669189454	231.5525817871094	-1114.50048828125	-209.4235382080079	233.4162902832032	-1074.296997070313	-267.3331604003907	189.7723388671875	-1033.098999023438	-375.1706542968751	105.0107192993164	-1074.255737304688	-348.6351013183594	121.301139831543	-992.4375610351565	-440.6904907226564	96.13819885253909	-1024.461181640625	-238.8048095703126	51.5527687072754	-1003.53466796875	-233.2810211181641	48.88299942016603	-1042.486572265625	-257.8134155273438	43.5757064819336	-1092.3955078125	-318.7331848144532	509.4669189453126	-864.6875000000002	-252.305404663086	511.3093566894532	-872.9365844726565	-237.4740600585938	540.9548339843751	-884.393005371094	-202.7063903808594	446.7554931640626	-893.1510009765627	-155.7824859619141	414.0140991210939	-900.7082519531252	-142.5594482421875	429.2359619140626	-1017.007507324219	-22.91094017028809	367.1450195312501	-925.7595825195315	0.9345063567161562	264.0922851562501	-898.2476196289065	29.40218162536622	298.8909606933594	-911.8366699218752	72.12003326416017	281.7604675292969	-946.9729614257815	154.2265167236328	147.8258361816407	-915.6274414062502	147.1001586914063	172.2634887695313	-993.8381347656252	142.4906768798828	84.8037567138672	-954.5938720703127	271.9710388183594	240.5646362304688	-996.524353027344	271.2055358886719	254.4305725097657	-950.3870239257815	274.4737548828126	224.3333587646485	-896.2239379882815	-284.8437805175782	597.9409790039064	-1187.398803710938	
912	4.555	-216.2694396972657	1350.5830078125	-1022.423217773438	-354.1106262207032	1278.415893554688	-1120.775024414063	-341.7167968750001	1282.902099609375	-969.3872070312502	-398.6181030273439	1172.424560546875	-1036.853881835938	-514.5595092773439	884.9863281250002	-1029.76171875	-282.0133972167969	1080.085327148438	-1045.98388671875	-332.1671752929688	1123.20654296875	-1200.877319335938	-192.9085083007813	1087.64306640625	-1283.688110351563	-159.4861755371094	1103.123413085938	-1250.970092773438	-127.6339416503907	1085.65673828125	-1299.955932617188	-76.33708953857423	1069.677490234375	-1314.387084960938	-64.87744140625001	1006.266296386719	-1267.967041015625	170.8072662353516	1108.084106445313	-1270.755859375	166.3056793212891	1110.7041015625	-1335.678833007813	251.2465209960938	1131.92236328125	-1272.855712890625	-315.3399047851563	1121.34130859375	-892.6322021484377	-181.9800109863282	1070.215942382813	-804.3181762695315	-152.5312652587891	1102.016967773438	-827.3007812500002	-111.8599929809571	1065.001098632813	-800.2007446289065	-44.77138137817384	1070.028930664063	-805.6278076171877	-40.24296188354493	1020.418884277344	-863.5869750976565	198.9617462158204	1094.858642578125	-858.5592041015627	189.3236389160157	1090.993896484375	-792.6984863281252	272.3632812500001	1114.522583007813	-845.914001464844	-395.6037902832032	702.6740722656251	-1140.307739257813	-392.8758544921876	697.3839111328126	-924.4766845703127	-553.2348632812501	771.7505493164065	-1025.17724609375	-564.4863891601564	744.9231567382814	-1055.945190429688	-565.1822509765626	739.6126708984376	-999.035095214844	-393.6961364746095	584.1448364257814	-1213.462158203125	-312.0582580566407	562.6419677734376	-1209.579956054688	-288.4118347167969	506.7929077148439	-1201.803588867188	-171.4576721191407	406.0677185058595	-1165.544067382813	-157.3839569091797	426.5876770019532	-1051.066650390625	-192.9652709960938	288.2005004882813	-1059.8447265625	-234.261703491211	231.6184234619141	-1114.6875	-209.5188293457032	233.4643859863282	-1074.493530273438	-267.3564453125001	189.7973022460938	-1033.294799804688	-375.0433959960938	104.9228515625	-1074.288696289063	-348.5285034179688	121.3490447998047	-992.5650634765627	-440.7003479003907	96.14810180664065	-1024.466674804688	-238.7740783691407	51.66931152343751	-1003.590515136719	-233.2665405273438	48.8602867126465	-1042.479736328125	-257.7980957031251	43.57654571533204	-1092.42041015625	-318.5184631347657	510.1044006347657	-864.6770019531252	-252.1751251220704	511.8345642089845	-872.864196777344	-237.3082733154297	541.5462646484376	-884.3140258789065	-202.3646850585938	447.5591430664064	-893.0292968750002	-155.5069885253907	414.7254943847657	-900.7650146484377	-142.2389526367188	430.2211914062501	-1016.985595703125	-22.54578971862793	367.9826354980469	-925.6506347656252	1.200288534164429	264.7226867675782	-898.2700195312502	29.71998023986817	299.8023986816407	-911.8645629882815	72.62971496582033	282.6825561523438	-946.8239746093752	154.7134704589844	148.662109375	-915.6580810546877	147.525619506836	173.5878448486328	-996.0976562500002	142.9257965087891	85.85439300537111	-954.588562011719	272.5485229492188	241.6217956542969	-996.564636230469	271.5588989257813	255.6484069824219	-950.3048095703127	275.0048828125001	225.2247619628907	-896.285095214844	-284.6844177246094	598.1394042968751	-1187.498779296875	
